<?xml version="1.0" encoding="utf-8"?>
<!-- Generator: Adobe Illustrator 22.0.1, SVG Export Plug-In . SVG Version: 6.00 Build 0)  -->
<svg version="1.1" id="Capa_1" xmlns="http://www.w3.org/2000/svg" xmlns:xlink="http://www.w3.org/1999/xlink" x="0px" y="0px"
	 viewBox="0 0 46.4 46.4" style="enable-background:new 0 0 46.4 46.4;" xml:space="preserve">
<style type="text/css">
	.st0{fill:#FFFFFF;}
</style>
<g>
	<path class="st0" d="M39.6,30.9l-7.7-7.7l7.7-7.7c2.4-2.4,2.4-6.3,0-8.7c-2.4-2.4-6.3-2.4-8.7,0l-7.7,7.7l-7.7-7.7
		c-2.4-2.4-6.3-2.4-8.7,0c-2.4,2.4-2.4,6.3,0,8.7l7.7,7.7l-7.7,7.7c-2.4,2.4-2.4,6.3,0,8.7c2.4,2.4,6.3,2.4,8.7,0l7.7-7.7l7.7,7.7
		c2.4,2.4,6.3,2.4,8.7,0C42,37.2,42,33.3,39.6,30.9z"/>
</g>
</svg>
