<?xml version="1.0" encoding="utf-8"?>
<!-- Generator: Adobe Illustrator 22.0.1, SVG Export Plug-In . SVG Version: 6.00 Build 0)  -->
<svg version="1.1" id="Layer_1" xmlns="http://www.w3.org/2000/svg" xmlns:xlink="http://www.w3.org/1999/xlink" x="0px" y="0px"
	 viewBox="0 0 512 512" style="enable-background:new 0 0 512 512;" xml:space="preserve">
<style type="text/css">
	.st0{fill:#999999;}
</style>
<g>
	<path class="st0" d="M311.4,324c-0.9,4.6-2.8,8.4-5.8,11.6c-3,3.2-7,4.8-12,4.8H189.7c-4.6,0-8.4-1.6-11.6-4.8
		c-3.2-3.2-4.8-7.1-4.8-11.6c0.4-15.9,3-30.1,7.5-42.4c4.6-12.3,10.8-23.4,18.8-33.2c8-9.8,17.9-18.6,29.7-26.3
		c11.8-7.7,25.7-15,41.7-21.9c14.6-6.4,24.6-12.3,30.1-17.8c5.5-5.5,8.2-13.4,8.2-23.9c0-0.9-0.1-3.1-0.3-6.5
		c-0.2-3.4-1.7-6.9-4.4-10.6c-2.7-3.6-7.4-6.9-14-9.9c-6.6-3-16.3-4.4-29-4.4c-14.6,0-26.6,1.7-35.9,5.1
		c-9.3,3.4-17.1,7.9-23.2,13.3c-6.2,5.5-10.9,11.7-14.4,18.8c-3.4,7.1-6.5,14-9.2,20.8c-1.8,4.1-4.8,7.2-8.9,9.2
		c-4.1,2.1-8.4,2.4-13,1l-77.2-25.3c-4.1-1.8-7.3-4.7-9.6-8.5c-2.3-3.9-2.7-8.1-1.4-12.6c3.2-12.3,8-26.9,14.4-43.7
		c6.4-16.9,16.6-33.2,30.8-48.9c14.1-15.7,33-29.1,56.7-40C194.3,5.5,225,0,262.9,0C282,0,299,1.6,313.8,4.8
		c14.8,3.2,28,7.4,39.6,12.6c11.6,5.2,21.5,11.1,29.7,17.4c8.2,6.4,15,12.5,20.5,18.5c12.8,14.1,22.7,28.8,29.7,44.1
		c7.1,15.3,10.6,32.2,10.6,50.9c0,24.2-3,43.5-8.9,58.1c-5.9,14.6-13.3,26.3-22.2,35.2c-8.9,8.9-18.8,16-29.7,21.2
		c-10.9,5.2-21.3,10.4-31.1,15.4c-9.8,5-18.5,10.9-26,17.8C318.6,302.8,313.7,312.2,311.4,324z M174,495.6v-94.3
		c0-4.5,1.6-8.4,4.8-11.6c3.2-3.2,7.1-4.8,11.6-4.8H293c5,0,9,1.6,12,4.8c3,3.2,4.4,7.1,4.4,11.6v94.3c0,4.6-1.5,8.4-4.4,11.6
		c-3,3.2-7,4.8-12,4.8H190.4c-4.6,0-8.4-1.6-11.6-4.8C175.6,504,174,500.2,174,495.6z"/>
</g>
</svg>
