<?xml version="1.0" encoding="utf-8"?>
<svg version="1.1" id="Capa_1" xmlns="http://www.w3.org/2000/svg" xmlns:xlink="http://www.w3.org/1999/xlink" x="0px" y="0px"
	 viewBox="0 0 512 512" style="enable-background:new 0 0 512 512;" xml:space="preserve">
<style type="text/css">
	.st0{fill:#999999;}
</style>
<g id="XMLID_574_">
	<path id="XMLID_578_" class="st0" d="M314.3,280.3c0,6,4.8,10.8,10.8,10.8l73.4,0l0,23.5c0,4.8,2.7,9.3,7,11.5
		c4.3,2.2,9.4,1.9,13.4-0.8l88.1-61.1c3.1-2.2,5-5.8,5-9.6c0-3.8-1.9-7.4-5-9.6l-88.1-60.3c-4-2.7-9.1-3-13.4-0.8
		c-4.3,2.2-6.9,6.7-6.9,11.5V219l-73.4,0c-6,0-10.8,4.8-10.8,10.8L314.3,280.3z"/>
	<path id="XMLID_577_" class="st0" d="M197.7,231.7c0-6-4.8-10.8-10.8-10.8l-73.4,0l0-23.5c0-4.8-2.7-9.3-7-11.5
		c-4.3-2.2-9.4-1.9-13.4,0.8L5,247.8c-3.1,2.2-5,5.8-5,9.6c0,3.8,1.9,7.4,5,9.6l88.1,60.3c4,2.7,9.1,3,13.4,0.8
		c4.3-2.2,6.9-6.7,6.9-11.5l0-23.5l73.4,0.1c6,0,10.8-4.8,10.8-10.8L197.7,231.7z"/>
	<path id="XMLID_576_" class="st0" d="M186.8,93.1c-2.8,4-3.1,9.1-0.8,13.4c2.2,4.3,6.7,7,11.5,7l23.5,0l0,73.4
		c0,6,4.8,10.8,10.8,10.8l50.5,0c6,0,10.8-4.8,10.8-10.8l0-73.4h23.5c4.8,0,9.2-2.7,11.5-6.9c2.3-4.3,2-9.4-0.8-13.4L267,5
		c-2.2-3.1-5.7-5-9.6-5c-3.8,0-7.4,1.9-9.6,5L186.8,93.1z"/>
	<path id="XMLID_575_" class="st0" d="M325.2,418.9c2.8-4,3.1-9.1,0.8-13.4c-2.2-4.3-6.7-7-11.5-7l-23.5,0v-73.4
		c0-6-4.8-10.8-10.8-10.8l-50.6,0c-6,0-10.8,4.8-10.8,10.8l0.1,73.4l-23.5,0c-4.8,0-9.2,2.7-11.5,6.9c-2.3,4.3-2,9.4,0.8,13.4
		L245,507c2.2,3.1,5.7,5,9.6,5c3.8,0,7.4-1.9,9.6-5L325.2,418.9z"/>
</g>
</svg>
