<?xml version="1.0" encoding="utf-8"?>
<!-- Generator: Adobe Illustrator 22.0.1, SVG Export Plug-In . SVG Version: 6.00 Build 0)  -->
<svg version="1.1" id="Capa_1" xmlns="http://www.w3.org/2000/svg" xmlns:xlink="http://www.w3.org/1999/xlink" x="0px" y="0px"
	 viewBox="0 0 512 512" style="enable-background:new 0 0 512 512;" xml:space="preserve">
<style type="text/css">
	.st0{fill:#999999;}
</style>
<g>
	<g>
		<path class="st0" d="M173.7,321c14.5,5.7,29.3,8.6,44.5,8.6s30-2.9,44.5-8.6c14.5-5.7,27.4-14.4,38.9-25.9
			c11.5-11.5,20.1-24.5,25.9-38.9c5.7-14.5,8.6-29.2,8.6-44.2s-2.9-29.8-8.6-44.5s-14.4-27.7-25.9-39.2
			c-11.5-11.5-24.5-20-38.9-25.6c-14.5-5.6-29.3-8.3-44.5-8.3c-15.2,0-30,2.8-44.5,8.3c-14.5,5.6-27.4,14.1-38.9,25.6
			c-11.5,11.5-20.1,24.6-25.9,39.2c-5.7,14.6-8.6,29.5-8.6,44.5s2.9,29.7,8.6,44.2c5.7,14.5,14.4,27.4,25.9,38.9
			C146.3,306.7,159.3,315.3,173.7,321z M138.4,15.6C164.6,5.2,191.1,0,218.2,0c27.1,0,53.6,5.2,79.8,15.6
			c26.1,10.4,49.6,25.8,70.3,46.1c17.8,17.8,31.8,37.7,42,59.8s16.5,44.8,18.9,68.1c2.4,23.3,1,46.7-4.2,70
			c-5.2,23.3-14.3,45.2-27.2,65.6l92.3,92.3c5.6,5.6,9.6,11.7,12.2,18.3c2.6,6.7,3.9,13.6,3.9,20.8c0,7.2-1.3,14.2-3.9,20.8
			c-2.6,6.7-6.7,12.8-12.2,18.3c-5.6,5.6-11.7,9.6-18.3,12.2c-6.7,2.6-13.6,3.9-20.8,3.9c-7.2,0-14.2-1.3-20.8-3.9
			c-6.7-2.6-12.8-6.7-18.3-12.2L316,400.3c-20,10.4-41,17.4-63.1,21.1c-22.1,3.7-44,3.9-65.9,0.6c-21.9-3.3-43-10-63.4-20
			c-20.4-10-38.9-23.3-55.6-40c-20.8-20.8-36.3-44.2-46.7-70.3C11,265.4,5.8,238.9,5.8,211.8S11,158.2,21.4,132s25.9-49.6,46.7-70.3
			C88.9,41.3,112.3,25.9,138.4,15.6z"/>
	</g>
</g>
</svg>
