<?xml version="1.0" encoding="iso-8859-1"?>
<svg xmlns="http://www.w3.org/2000/svg" xmlns:xlink="http://www.w3.org/1999/xlink" version="1.1" id="Capa_1" x="0px" y="0px" viewBox="0 0 512 512" style="enable-background:new 0 0 512 512;" xml:space="preserve" width="512px" height="512px">
<g>
	<g>
		<path d="M496,240h-48.8C439.456,146.88,365.12,72.544,272,64.8V16c0-8.832-7.168-16-16-16c-8.832,0-16,7.168-16,16v48.8    C146.88,72.544,72.544,146.88,64.8,240H16c-8.832,0-16,7.168-16,16c0,8.832,7.168,16,16,16h48.768    C72.512,365.088,146.88,439.456,240,447.2V496c0,8.832,7.168,16,16,16c8.832,0,16-7.168,16-16v-48.8    c93.12-7.744,167.488-82.08,175.232-175.2H496c8.832,0,16-7.168,16-16C512,247.168,504.832,240,496,240z M256,320    c-35.36,0-64-28.64-64-64s28.64-64,64-64s64,28.64,64,64C320,291.328,291.36,320,256,320z" fill="#FFFFFF"/>
	</g>
</g>
</svg>
