<?xml version="1.0" encoding="utf-8"?>
<!-- Generator: Adobe Illustrator 22.0.1, SVG Export Plug-In . SVG Version: 6.00 Build 0)  -->
<svg version="1.1" id="Layer_1" xmlns="http://www.w3.org/2000/svg" xmlns:xlink="http://www.w3.org/1999/xlink" x="0px" y="0px"
	 viewBox="0 0 512 512" style="enable-background:new 0 0 512 512;" xml:space="preserve">
<style type="text/css">
	.st0{fill:#999999;}
</style>
<g>
	<path class="st0" d="M234,512H12c-6.6,0-12-5.4-12-12V12C0,5.4,5.4,0,12,0h222c6.6,0,12,5.4,12,12v488C246,506.6,240.6,512,234,512
		z"/>
</g>
<path class="st0" d="M500,246H278c-6.6,0-12-5.4-12-12V12c0-6.6,5.4-12,12-12h222c6.6,0,12,5.4,12,12v222
	C512,240.6,506.6,246,500,246z"/>
<path class="st0" d="M500,512H278c-6.6,0-12-5.4-12-12V278c0-6.6,5.4-12,12-12h222c6.6,0,12,5.4,12,12v222
	C512,506.6,506.6,512,500,512z"/>
</svg>
