<?xml version="1.0" encoding="utf-8"?>
<!-- Generator: Adobe Illustrator 22.0.1, SVG Export Plug-In . SVG Version: 6.00 Build 0)  -->
<svg version="1.1" id="Layer_1" xmlns="http://www.w3.org/2000/svg" xmlns:xlink="http://www.w3.org/1999/xlink" x="0px" y="0px"
	 viewBox="0 0 512 512" style="enable-background:new 0 0 512 512;" xml:space="preserve">
<style type="text/css">
	.st0{fill:#999999;}
</style>
<path class="st0" d="M492,0H20C9,0,0,9,0,20v472c0,11,9,20,20,20h472c11,0,20-9,20-20V20C512,9,503,0,492,0z M222,277l-90.5,77
	c-11.6,9.9-29.1,8.5-39-3.1c-9.9-11.6-8.5-29.1,3.1-39l65.7-55.9l-65.7-55.9c-11.6-9.9-13-27.3-3.1-39c9.9-11.6,27.3-13,39-3.1
	l90.5,77C234.9,246,234.9,266,222,277z M398.4,360.6H289.2c-15.3,0-27.6-12.4-27.6-27.6c0-15.3,12.4-27.6,27.6-27.6h109.2
	c15.3,0,27.6,12.4,27.6,27.6C426,348.2,413.6,360.6,398.4,360.6z"/>
</svg>
